<svg id="Layer_1" data-name="Layer 1" xmlns="http://www.w3.org/2000/svg" xmlns:xlink="http://www.w3.org/1999/xlink" viewBox="0 0 1417.32 1417.32"><defs><style>.cls-1{fill:url(#linear-gradient);}.cls-2{fill:url(#linear-gradient-2);}.cls-3{fill:url(#linear-gradient-3);}.cls-4{fill:url(#linear-gradient-4);}.cls-5{fill:url(#linear-gradient-5);}.cls-6{fill:url(#linear-gradient-6);}.cls-7{fill:url(#linear-gradient-7);}.cls-8{fill:url(#linear-gradient-8);}.cls-9{fill:url(#linear-gradient-9);}.cls-10{fill:url(#linear-gradient-10);}.cls-11{fill:url(#linear-gradient-11);}.cls-12{fill:url(#linear-gradient-12);}.cls-13{fill:url(#linear-gradient-13);}.cls-14{fill:url(#linear-gradient-14);}.cls-15{fill:url(#linear-gradient-15);}.cls-16{fill:url(#linear-gradient-16);}.cls-17{fill:url(#linear-gradient-17);}.cls-18{fill:url(#linear-gradient-18);}.cls-19{fill:url(#linear-gradient-19);}.cls-20{fill:url(#linear-gradient-20);}.cls-21{fill:url(#linear-gradient-21);}.cls-22{fill:url(#linear-gradient-22);}</style><linearGradient id="linear-gradient" x1="255.82" y1="588.74" x2="587.68" y2="588.74" gradientUnits="userSpaceOnUse"><stop offset="0" stop-color="#fff"/><stop offset="0.22" stop-color="#808184"/><stop offset="0.41" stop-color="#bbbdbf"/><stop offset="0.69" stop-color="#fff"/><stop offset="1" stop-color="#58595b"/></linearGradient><linearGradient id="linear-gradient-2" x1="491.4" y1="501.68" x2="1116.19" y2="501.68" xlink:href="#linear-gradient"/><linearGradient id="linear-gradient-3" x1="384.88" y1="1083.54" x2="733.12" y2="1083.54" xlink:href="#linear-gradient"/><linearGradient id="linear-gradient-4" x1="832.97" y1="888.22" x2="719.82" y2="888.22" xlink:href="#linear-gradient"/><linearGradient id="linear-gradient-5" x1="873.43" y1="908.45" x2="797.64" y2="908.45" xlink:href="#linear-gradient"/><linearGradient id="linear-gradient-6" x1="960.99" y1="908.45" x2="877.68" y2="908.45" xlink:href="#linear-gradient"/><linearGradient id="linear-gradient-7" x1="1037.76" y1="907.21" x2="967.9" y2="907.21" xlink:href="#linear-gradient"/><linearGradient id="linear-gradient-8" x1="1102.83" y1="908.45" x2="1035.28" y2="908.45" xlink:href="#linear-gradient"/><linearGradient id="linear-gradient-9" x1="589.54" y1="1021.02" x2="547.26" y2="1021.02" xlink:href="#linear-gradient"/><linearGradient id="linear-gradient-10" x1="612.16" y1="1026.33" x2="587.51" y2="1026.33" xlink:href="#linear-gradient"/><linearGradient id="linear-gradient-11" x1="644.08" y1="998.08" x2="630.38" y2="998.08" xlink:href="#linear-gradient"/><linearGradient id="linear-gradient-12" x1="667.35" y1="1032.13" x2="631.72" y2="1032.13" xlink:href="#linear-gradient"/><linearGradient id="linear-gradient-13" x1="741.63" y1="1032.13" x2="698.94" y2="1032.13" xlink:href="#linear-gradient"/><linearGradient id="linear-gradient-14" x1="774.49" y1="1020.04" x2="749.71" y2="1020.04" xlink:href="#linear-gradient"/><linearGradient id="linear-gradient-15" x1="802.54" y1="1020.04" x2="777.75" y2="1020.04" xlink:href="#linear-gradient"/><linearGradient id="linear-gradient-16" x1="872.42" y1="1032.13" x2="829.72" y2="1032.13" xlink:href="#linear-gradient"/><linearGradient id="linear-gradient-17" x1="921.74" y1="1020.04" x2="879.33" y2="1020.04" xlink:href="#linear-gradient"/><linearGradient id="linear-gradient-18" x1="970.4" y1="1032.13" x2="928.93" y2="1032.13" xlink:href="#linear-gradient"/><linearGradient id="linear-gradient-19" x1="1020.52" y1="1032.13" x2="978.25" y2="1032.13" xlink:href="#linear-gradient"/><linearGradient id="linear-gradient-20" x1="1053.33" y1="1026.33" x2="1028.69" y2="1026.33" xlink:href="#linear-gradient"/><linearGradient id="linear-gradient-21" x1="1156.13" y1="1021.75" x2="1088.38" y2="1021.75" xlink:href="#linear-gradient"/><linearGradient id="linear-gradient-22" x1="1161.5" y1="1049.08" x2="1152.01" y2="1049.08" xlink:href="#linear-gradient"/></defs><path class="cls-1" d="M587.68,229.23,467.91,576.89l-72,209C391.71,798.08,338.25,946,356.2,948.25L255.82,936l43-92.18L489.35,333.7l-110.62-8.19,8.2-16.39Z"/><path class="cls-2" d="M1116.19,229.23s-59.4,36.87-168,45.07h-295L491.4,729.06s127-57.36,215.09-69.65c0,0,151.59-22.53,174.13,114.72l45.06-100.38s-36.87-51.21-121.88-63.5c0,0-123.94-18.44-238.65,53.26L673.72,350.09l389.21-4.1,41-92.18Z"/><path class="cls-3" d="M434,979l-49.16,120.86s61.45,57.36,118.81,67.6c12.29,10.24,120.86,26.63,170,18.44l34.82-10.25,24.58-57.36S681.91,1147,622.51,1147c0,0-75.8,2.22-131.11-63.41l-49.16-73.84Z"/><path class="cls-4" d="M751,895.22l-10.1-43.74q-2.57-11.33-6.2-15.49-2.75-3.19-10-4.52l1-3.27H783.3l-1.06,3.27q-8.41,0-12.26,3.41a10.46,10.46,0,0,0-3.85,8.1,56.13,56.13,0,0,0,1.59,10.18l7.79,35.51,19.39-26.74q7.44-10.27,9.3-14.48a18.85,18.85,0,0,0,1.85-7.39,7.64,7.64,0,0,0-2.39-5.58q-2.38-2.38-7.7-3l1-3.27h36v3.27a16.8,16.8,0,0,0-8.41,3.19q-3.54,2.65-13.81,16.82l-34.09,46.93-8,27.8q-2.57,8.58-2.56,10a7.88,7.88,0,0,0,2.92,6.29Q772,945,778.87,945h3.37l-1,3.27H719.82l.89-3.27q6.72.07,10.8-1.82a14.7,14.7,0,0,0,6.11-4.91q1.41-2.13,4.16-11.34Z"/><path class="cls-5" d="M822,915.05a72,72,0,0,0-.8,9.47q0,6.65,3.86,10.63t10.31,4a28.39,28.39,0,0,0,12.44-3q6.24-3,14.48-10.53l2.65,2.39q-10.18,12.3-19.83,17.53a44.12,44.12,0,0,1-21.34,5.22q-14.79,0-20.45-7.08a25.45,25.45,0,0,1-5.67-16.38q0-14.52,8.46-29a65,65,0,0,1,23-23.29q14.57-8.76,29.26-8.76,7.44,0,11.24,3.54a11.68,11.68,0,0,1,3.81,8.94,23.86,23.86,0,0,1-3.72,12.57,42.33,42.33,0,0,1-12.92,13.42,61.59,61.59,0,0,1-17.45,7.74A97.35,97.35,0,0,1,822,915.05Zm.8-4.6a45.46,45.46,0,0,0,12.08-3.15,27.56,27.56,0,0,0,8.41-6.37,39.86,39.86,0,0,0,7.13-11.07,30.56,30.56,0,0,0,3-12.53,5.37,5.37,0,0,0-1.37-3.89,4.65,4.65,0,0,0-3.5-1.42q-4.24,0-9.56,5.93Q829.26,888.75,822.79,910.45Z"/><path class="cls-6" d="M961,867.42l-17.17,58.87-1.77,7.18a10.89,10.89,0,0,0-.27,1.94,2.62,2.62,0,0,0,.75,1.86,2.18,2.18,0,0,0,1.55.8q1.86,0,5.14-2.83,1.32-1.15,6.37-8.15l3.1,1.6q-6.29,11.5-13.41,16.77a25.35,25.35,0,0,1-15.36,5.27c-3.37,0-5.93-.87-7.71-2.61a8.86,8.86,0,0,1-2.65-6.6q0-3.45,2.83-12.83l2.13-7.18q-10.28,17.63-19.75,25a18.77,18.77,0,0,1-11.68,4.25q-8.15,0-11.78-6.68a31.14,31.14,0,0,1-3.63-15.1q0-12.48,7.62-28.64t20-26q10.19-8.15,19.13-8.14a11.06,11.06,0,0,1,8,2.88q3,2.87,4.42,10.49L940,868.66Zm-28.33,16.82q0-7.17-2.21-10.36a5.08,5.08,0,0,0-4.34-2.21q-2.75,0-5.67,2.65-5.93,5.49-12.79,22.27t-6.86,29c0,3.13.52,5.38,1.55,6.77a4.31,4.31,0,0,0,3.41,2.08q4,0,8-4.6a71.71,71.71,0,0,0,10.54-16Q932.67,897.16,932.66,884.24Z"/><path class="cls-7" d="M1007.74,866.18l-13.37,49.76q16.47-36.39,24.79-44.8,4.87-5,10.27-5a7.52,7.52,0,0,1,6,2.7q2.31,2.7,2.31,7.66,0,8.58-4.17,14.43-2.65,3.72-5.93,3.72a5.69,5.69,0,0,1-5.31-3.28,16.8,16.8,0,0,0-2.48-3.85,2.36,2.36,0,0,0-1.5-.58,3.82,3.82,0,0,0-1.86.54c-1.3.7-3,2.43-5.09,5.17s-4.68,7.34-7.75,13.77-5.46,11.88-7.17,16.34-4.11,12.94-7.17,25.45H967.9l14.61-58.7a47.48,47.48,0,0,0,1.59-8.67,6.92,6.92,0,0,0-.84-3.72,4.92,4.92,0,0,0-2.3-1.95q-1.47-.62-6.07-.62l.8-2.57,26.74-5.84Z"/><path class="cls-8" d="M1102.83,866.18l-3.9,27.36h-3.27q-.72-10.63-6.51-16.74t-12.44-6.11a9.71,9.71,0,0,0-6.73,2.39,7.49,7.49,0,0,0-2.65,5.76,12.4,12.4,0,0,0,1.15,5.31,29.42,29.42,0,0,0,5.13,6.73q14,15,17,20.72a25.44,25.44,0,0,1,3,12.13,26.4,26.4,0,0,1-3.54,13.23,25.76,25.76,0,0,1-10.58,10,30.66,30.66,0,0,1-14.65,3.76,49.89,49.89,0,0,1-12.66-2,30.23,30.23,0,0,0-7.44-1.41,7.39,7.39,0,0,0-3.45.66,8.91,8.91,0,0,0-2.75,2.79h-3.27l4.33-29.48h2.84q3.09,10.71,5.8,15.27a20.47,20.47,0,0,0,7.21,7.26,16.94,16.94,0,0,0,8.68,2.7,11.23,11.23,0,0,0,8.06-3.05,9.78,9.78,0,0,0,3.18-7.31,16.89,16.89,0,0,0-2.08-8.06q-2.07-3.88-9.6-12.12-10.37-11.25-13.64-17.36a21.59,21.59,0,0,1-2.3-10.09,20.74,20.74,0,0,1,7-15.94q6.94-6.37,19.52-6.37a58.33,58.33,0,0,1,13.46,2,28.31,28.31,0,0,0,6.37,1,6.56,6.56,0,0,0,5.58-2.92Z"/><path class="cls-9" d="M573.87,1051l-.51,1.74h-26.1l.66-1.74a16.3,16.3,0,0,0,5.19-.65,6.39,6.39,0,0,0,3-2.2,28.54,28.54,0,0,0,3.18-7.85l11-38.25a28,28,0,0,0,1.41-7.21,3.43,3.43,0,0,0-.61-2.05,3.81,3.81,0,0,0-1.85-1.29,16.9,16.9,0,0,0-4.84-.44l.56-1.73h24.51l-.52,1.73a10.32,10.32,0,0,0-4.44.65,7.07,7.07,0,0,0-3.2,2.67q-1.11,1.73-2.83,7.67l-11,38.25a34.45,34.45,0,0,0-1.5,6.73,3.35,3.35,0,0,0,.59,2,3.73,3.73,0,0,0,1.87,1.26A24.84,24.84,0,0,0,573.87,1051Z"/><path class="cls-10" d="M608.46,998.81l-3.65,12.72h7.35l-.8,2.94h-7.29L596,1042.06a28,28,0,0,0-1.31,5.75,1.76,1.76,0,0,0,.38,1.22,1.15,1.15,0,0,0,.89.42,5.43,5.43,0,0,0,3.08-1.64,55.82,55.82,0,0,0,5-5.75l1.54,1.17q-4.3,6.27-8.14,8.84a9.34,9.34,0,0,1-5.28,1.78,4.6,4.6,0,0,1-3.37-1.29,4.42,4.42,0,0,1-1.31-3.29,31.06,31.06,0,0,1,1.5-7.72l7.81-27.08h-7.06l.46-1.82a22.84,22.84,0,0,0,8.56-4.18q3.42-2.79,7.62-9.66Z"/><path class="cls-11" d="M630.38,1006.81a16.06,16.06,0,0,0,5.7-4,5.44,5.44,0,0,0,1.69-3.55,4.42,4.42,0,0,0-.28-1.59,8.77,8.77,0,0,0-1.31-1.5,5.55,5.55,0,0,1-1.26-1.54,4.52,4.52,0,0,1-.33-1.82,4.83,4.83,0,0,1,1.38-3.46,4.33,4.33,0,0,1,3.25-1.45,4.55,4.55,0,0,1,3.39,1.54,5.4,5.4,0,0,1,1.47,3.88,13.84,13.84,0,0,1-3.27,8.42,20.85,20.85,0,0,1-9.49,6.59Z"/><path class="cls-12" d="M667.35,1010.41l-2.85,14.35h-1.73c-.15-4.18-1-7.21-2.66-9.12a7.63,7.63,0,0,0-6-2.85,6.48,6.48,0,0,0-4.6,1.59,5.05,5.05,0,0,0-1.71,3.84,6.7,6.7,0,0,0,.68,2.94,18.86,18.86,0,0,0,3,3.93q6.08,6.65,7.85,10a13.6,13.6,0,0,1,1.78,6.36,11.5,11.5,0,0,1-4,8.62,14.43,14.43,0,0,1-10.22,3.77,23.25,23.25,0,0,1-7.76-1.59,7.48,7.48,0,0,0-2.39-.56,3.41,3.41,0,0,0-3.18,2.15h-1.73l2.85-15.15h1.74q.27,7.11,2.94,10a9.37,9.37,0,0,0,7.3,3,7.85,7.85,0,0,0,5.63-2,6.49,6.49,0,0,0,2.08-4.89,8,8,0,0,0-.75-3.46,39.46,39.46,0,0,0-5.49-7.76,41.47,41.47,0,0,1-5.38-7.44,11.38,11.38,0,0,1-1.19-5,10.18,10.18,0,0,1,3.3-7.67,11.78,11.78,0,0,1,8.48-3.13,14,14,0,0,1,2.71.23,28.28,28.28,0,0,1,3.07,1.05,11.7,11.7,0,0,0,3.2.91,3.94,3.94,0,0,0,3.37-2.19Z"/><path class="cls-13" d="M741.63,1010.41l-9.12,31.7-1,4.26a4.82,4.82,0,0,0-.14,1,2,2,0,0,0,.47,1.31,1.2,1.2,0,0,0,.94.42,2.94,2.94,0,0,0,1.59-.74,27.78,27.78,0,0,0,4.86-5.61l1.59,1.12a29.37,29.37,0,0,1-6.64,7.41,10.84,10.84,0,0,1-6.31,2.55,4.11,4.11,0,0,1-3-1,4,4,0,0,1-1-2.92,24.11,24.11,0,0,1,1-6l1-3.51q-6.14,8-11.27,11.18a13.8,13.8,0,0,1-7.25,2.29,7.6,7.6,0,0,1-5.89-2.83c-1.66-1.89-2.48-4.48-2.48-7.79q0-7.43,4.46-15.69a38.73,38.73,0,0,1,11.34-13.21q5.38-3.92,10.15-3.92a7.41,7.41,0,0,1,4.75,1.49,9.36,9.36,0,0,1,2.87,5l1.69-5.33ZM725,1012.84q-3,0-6.36,2.8-4.77,4-8.49,11.79t-3.72,14.12a7.45,7.45,0,0,0,1.59,5,4.72,4.72,0,0,0,3.65,1.84q5.1,0,11.08-7.53,8-10,8-20.52,0-4-1.55-5.76A5.27,5.27,0,0,0,725,1012.84Z"/><path class="cls-14" d="M774.49,986.23l-16,55.65a29.24,29.24,0,0,0-1.17,5.09,1.61,1.61,0,0,0,.45,1.17,1.44,1.44,0,0,0,1.09.47,3.14,3.14,0,0,0,1.92-.8,25.38,25.38,0,0,0,5.1-5.93l1.4,1.45q-4.44,6.26-8.18,8.74a9.81,9.81,0,0,1-5.24,1.78,4,4,0,0,1-3-1.22,3.89,3.89,0,0,1-1.19-2.8,32.79,32.79,0,0,1,1.5-6.93L763.88,999a44.36,44.36,0,0,0,1.54-6.17,2.3,2.3,0,0,0-.89-1.85,4.34,4.34,0,0,0-2.76-.72,24.33,24.33,0,0,0-3.27.33V988.9Z"/><path class="cls-15" d="M802.54,986.23l-16,55.65a28.78,28.78,0,0,0-1.16,5.09,1.61,1.61,0,0,0,.44,1.17,1.47,1.47,0,0,0,1.1.47,3.19,3.19,0,0,0,1.92-.8,25.14,25.14,0,0,0,5.09-5.93l1.41,1.45c-3,4.17-5.69,7.09-8.19,8.74a9.78,9.78,0,0,1-5.24,1.78,4,4,0,0,1-3-1.22,3.86,3.86,0,0,1-1.2-2.8,32.79,32.79,0,0,1,1.5-6.93L791.92,999a44.36,44.36,0,0,0,1.54-6.17,2.29,2.29,0,0,0-.88-1.85,4.38,4.38,0,0,0-2.76-.72,24.45,24.45,0,0,0-3.28.33V988.9Z"/><path class="cls-16" d="M872.42,1010.41l-9.12,31.7-1,4.26a4.82,4.82,0,0,0-.14,1,2,2,0,0,0,.47,1.31,1.2,1.2,0,0,0,.93.42,2.88,2.88,0,0,0,1.59-.74,27.43,27.43,0,0,0,4.87-5.61l1.59,1.12a29.56,29.56,0,0,1-6.64,7.41,10.84,10.84,0,0,1-6.32,2.55,4.08,4.08,0,0,1-3-1,4,4,0,0,1-1-2.92,23.75,23.75,0,0,1,1-6l1-3.51q-6.12,8-11.27,11.18a13.77,13.77,0,0,1-7.24,2.29,7.63,7.63,0,0,1-5.9-2.83c-1.65-1.89-2.48-4.48-2.48-7.79q0-7.43,4.47-15.69a38.73,38.73,0,0,1,11.34-13.21q5.38-3.92,10.15-3.92a7.38,7.38,0,0,1,4.74,1.49,9.37,9.37,0,0,1,2.88,5l1.68-5.33Zm-16.65,2.43q-3,0-6.36,2.8-4.77,4-8.49,11.79t-3.71,14.12a7.45,7.45,0,0,0,1.59,5,4.7,4.7,0,0,0,3.64,1.84q5.1,0,11.09-7.53,8-10,8-20.52,0-4-1.54-5.76A5.3,5.3,0,0,0,855.77,1012.84Z"/><path class="cls-17" d="M904.44,986.23l-9.22,32.31a32.69,32.69,0,0,1,7.84-6.4,14.94,14.94,0,0,1,7-1.73,11.11,11.11,0,0,1,8.41,3.41q3.28,3.42,3.28,9.26a29.85,29.85,0,0,1-4.3,15,33.15,33.15,0,0,1-10.81,11.62,23.7,23.7,0,0,1-12.81,4.16q-7.07,0-14.49-5.29l14.21-49a43.52,43.52,0,0,0,1.64-6.64,2.21,2.21,0,0,0-.75-1.82,5.11,5.11,0,0,0-3.18-.84,20.46,20.46,0,0,0-3,.33v-1.78Zm-18.1,62.85a17.66,17.66,0,0,0,8.23,2.57,15.2,15.2,0,0,0,8.53-3q4.42-3,7.67-10.17A34.57,34.57,0,0,0,914,1024a9.93,9.93,0,0,0-2.12-6.73,6.5,6.5,0,0,0-5-2.43,13.19,13.19,0,0,0-8.51,3.48,19,19,0,0,0-5.94,9.7Z"/><path class="cls-18" d="M970.4,1025a29,29,0,0,1-3.71,13.89,28.34,28.34,0,0,1-10.36,10.9,24.92,24.92,0,0,1-12.91,4,14.09,14.09,0,0,1-10.45-4.09,14.42,14.42,0,0,1-4-10.6,27.55,27.55,0,0,1,4-13.79,29.84,29.84,0,0,1,10.57-10.94,24.63,24.63,0,0,1,12.78-4,13.67,13.67,0,0,1,10.18,4.06A14.47,14.47,0,0,1,970.4,1025Zm-7.76-3.22q0-4.35-2.13-6.67a7.13,7.13,0,0,0-5.49-2.31q-6.87,0-12.65,9.84t-5.78,19.57c0,3,.75,5.25,2.25,6.85a7.39,7.39,0,0,0,5.66,2.41q6.59,0,12.37-9.8A38.76,38.76,0,0,0,962.64,1021.82Z"/><path class="cls-19" d="M1020.52,1011.53l-8.14,27.87q-1.82,6.21-1.82,7.85a2.06,2.06,0,0,0,.3,1.24,1,1,0,0,0,.82.4,3,3,0,0,0,1.75-.72,46.29,46.29,0,0,0,4.84-5.78l1.41,1.08a30.3,30.3,0,0,1-7.58,8.6,8.81,8.81,0,0,1-5,1.78,3.89,3.89,0,0,1-2.85-1,3.65,3.65,0,0,1-1-2.67,20,20,0,0,1,.61-4.21q.75-3.45,4.26-15-7.95,13-13.31,18t-9.93,5a5,5,0,0,1-3.65-1.5,5.13,5.13,0,0,1-1.5-3.79q0-3.49,2.06-10.75l4.07-14.45a34.3,34.3,0,0,0,1.49-6.45,1.3,1.3,0,0,0-.39-1,1.21,1.21,0,0,0-.87-.4,3.34,3.34,0,0,0-2,.7,35.51,35.51,0,0,0-4.44,5.19l-1.45-1a26.45,26.45,0,0,1,7.43-8,10.13,10.13,0,0,1,5.52-2,3.77,3.77,0,0,1,3.93,3.92c0,1.69-.63,4.7-1.87,9l-4.4,15.1q-1.82,6.18-1.82,7.81a1.85,1.85,0,0,0,.58,1.43,2.22,2.22,0,0,0,1.57.54,8.3,8.3,0,0,0,4-1.55q2.47-1.55,6.62-6.85a87.85,87.85,0,0,0,6.82-10q2.7-4.65,5.73-14.8l1-3.55Z"/><path class="cls-20" d="M1049.64,998.81l-3.65,12.72h7.34l-.79,2.94h-7.3l-8,27.59a28,28,0,0,0-1.31,5.75,1.76,1.76,0,0,0,.37,1.22,1.16,1.16,0,0,0,.89.42,5.45,5.45,0,0,0,3.09-1.64,56.27,56.27,0,0,0,5-5.75l1.55,1.17q-4.3,6.27-8.14,8.84a9.39,9.39,0,0,1-5.28,1.78,4.58,4.58,0,0,1-3.37-1.29,4.42,4.42,0,0,1-1.31-3.29,31.4,31.4,0,0,1,1.49-7.72l7.81-27.08h-7.06l.47-1.82a22.92,22.92,0,0,0,8.56-4.18q3.4-2.79,7.62-9.66Z"/><path class="cls-21" d="M1090.71,989.32h26.8l-.52,1.73a19.1,19.1,0,0,0-5.86.77,6.58,6.58,0,0,0-3,2.41,23.2,23.2,0,0,0-2.59,6.4l-6.5,22.45c-1.16,4-1.84,6.61-2.06,7.85a30.72,30.72,0,0,0-.56,5.57,12.52,12.52,0,0,0,4.21,9.56q4.2,3.9,11.27,3.91a18.84,18.84,0,0,0,8.27-1.76,18.1,18.1,0,0,0,6.25-4.91,32.12,32.12,0,0,0,4.74-8.55c1.44-3.61,2.7-7.24,3.79-10.92l5.61-19.36c1.4-4.83,2.11-8,2.11-9.45a3.25,3.25,0,0,0-1.43-2.64c-1-.73-2.88-1.18-5.78-1.33l.52-1.73h20.15l-.51,1.73a13.75,13.75,0,0,0-5.12.68,6.34,6.34,0,0,0-2.74,2.43,27.6,27.6,0,0,0-2.62,6.8l-6.87,23.52q-3.32,11.46-6.26,16.91a25.16,25.16,0,0,1-8.54,9.11c-3.72,2.45-8.35,3.67-13.86,3.67q-9.54,0-15.39-5.4t-5.84-12.36a36.87,36.87,0,0,1,.51-5.9q.38-2.05,1.82-7.1l6.27-21.56a29,29,0,0,0,1.31-6.87,3.11,3.11,0,0,0-1.33-2.69c-.89-.64-3.13-1.06-6.71-1.24Z"/><path class="cls-22" d="M1156.73,1044.35a4.71,4.71,0,0,1,4.77,4.73,4.52,4.52,0,0,1-1.4,3.34,4.64,4.64,0,0,1-3.37,1.38,4.73,4.73,0,1,1,0-9.45Z"/></svg>